<?xml version="1.0" encoding="UTF-8" standalone="no"?> <svg id="Layer_1" data-name="Layer 1" xmlns="http://www.w3.org/2000/svg" viewBox="0 0 128 128"><defs><style>.cls-1{fill:#a641b8;}.cls-2{fill:#a641b8;}</style></defs><title>n</title><path class="cls-1" d="M93.90589,33.13838H75.21481a1.86912,1.86912,0,1,0,0,3.73824H93.90589a1.86912,1.86912,0,1,0,0-3.73824Z"/><path class="cls-1" d="M93.90589,45.95515H75.21481a1.8691,1.8691,0,1,0,0,3.7382H93.90589a1.8691,1.8691,0,1,0,0-3.7382Z"/><path class="cls-1" d="M59.57635,56.90276a61.08185,61.08185,0,0,0-.53019-7.063,2.80519,2.80519,0,0,0-1.51177-2.03589c-2.62872-1.31081-8.39707-3.24673-8.39707-3.24673V42.65249l.16057-.12116a5.51088,5.51088,0,0,0,2.09245-3.50226l.03232-.203h.15653a2.12877,2.12877,0,0,0,1.97023-1.32491,2.31812,2.31812,0,0,0,.28983-1.123,2.13238,2.13238,0,0,0-.15148-.78971,1.10148,1.10148,0,0,0-.42717-.68673l-.53219-.32317.13228-.57763a6.68864,6.68864,0,0,0-6.64495-8.06991c-.106-.002-.21106-.003-.3151-.001-.104-.002-.209-.001-.31506.001A6.68864,6.68864,0,0,0,38.94064,34.001l.13228.57763-.53219.32317a1.10148,1.10148,0,0,0-.42717.68673,2.13238,2.13238,0,0,0-.15148.78971,2.31859,2.31859,0,0,0,.28983,1.123,2.12878,2.12878,0,0,0,1.97028,1.32491h.15649l.03232.203a5.51106,5.51106,0,0,0,2.09245,3.50226l.16061.12116v1.90462s-5.7684,1.93592-8.39711,3.24673a2.8053,2.8053,0,0,0-1.51177,2.03589,61.08185,61.08185,0,0,0-.53019,7.063H59.57635Z"/><path class="cls-1" d="M93.90589,73.49812H34.22737a1.86912,1.86912,0,1,0,0,3.73824H93.90589a1.86912,1.86912,0,1,0,0-3.73824Z"/><path class="cls-1" d="M93.90589,93.8403H34.22737a1.8691,1.8691,0,1,0,0,3.7382H93.90589a1.8691,1.8691,0,1,0,0-3.7382Z"/><path class="cls-2" d="M105.02277,2.04725H22.97723A10.05772,10.05772,0,0,0,12.93084,12.09364V115.90636a10.05772,10.05772,0,0,0,10.04639,10.04639h82.04554a10.05772,10.05772,0,0,0,10.04639-10.04639V12.09364A10.05772,10.05772,0,0,0,105.02277,2.04725ZM106.139,115.90636a1.11747,1.11747,0,0,1-1.11627,1.11627H22.97723a1.11746,1.11746,0,0,1-1.11623-1.11627V12.09364a1.11746,1.11746,0,0,1,1.11623-1.11627h82.04554a1.11747,1.11747,0,0,1,1.11627,1.11627Z"/></svg>