<svg xmlns="http://www.w3.org/2000/svg" xmlns:xlink="http://www.w3.org/1999/xlink" width="861" height="1732" fill="none" viewBox="0 0 861 1732">
  <g filter="url(#filter0_iii_12_419)">
    <path fill="url(#paint0_linear_12_419)" fill-rule="evenodd" d="M861 336a2 2 0 00-2-2h-3.72c-.878 0-2.28 2.794-2.28 4.638v100.676c0 1.869 1.206 4.686 2.28 4.686H859a2 2 0 002-2V336z" clip-rule="evenodd"/>
  </g>
  <mask id="a" width="8" height="110" x="853" y="334" maskUnits="userSpaceOnUse" style="mask-type:alpha">
    <path fill="#fff" fill-rule="evenodd" d="M861 336a2 2 0 00-2-2h-3.72c-.878 0-2.28 2.794-2.28 4.638v100.676c0 1.869 1.206 4.686 2.28 4.686H859a2 2 0 002-2V336z" clip-rule="evenodd"/>
    <path fill-rule="evenodd" stroke="#fff" d="M861 336a2 2 0 00-2-2h-3.72c-.878 0-2.28 2.794-2.28 4.638v100.676c0 1.869 1.206 4.686 2.28 4.686H859a2 2 0 002-2V336z" clip-rule="evenodd"/>
  </mask>
  <g mask="url(#a)">
    <path fill="url(#paint1_linear_12_419)" fill-rule="evenodd" d="M859 334h2v110.001h-2V334z" clip-rule="evenodd" opacity=".68" style="mix-blend-mode:overlay"/>
  </g>
  <g filter="url(#filter1_iii_12_419)">
    <path fill="url(#paint2_linear_12_419)" fill-rule="evenodd" d="M0 474a2 2 0 012-2h3.72c.878 0 2.28 2.718 2.28 4.511v97.931C8 576.26 6.794 579 5.72 579H2a2 2 0 01-2-2V474z" clip-rule="evenodd"/>
  </g>
  <mask id="b" width="8" height="107" x="0" y="472" maskUnits="userSpaceOnUse" style="mask-type:alpha">
    <path fill="#fff" fill-rule="evenodd" d="M0 474a2 2 0 012-2h3.72c.878 0 2.28 2.718 2.28 4.511v97.931C8 576.26 6.794 579 5.72 579H2a2 2 0 01-2-2V474z" clip-rule="evenodd"/>
    <path fill-rule="evenodd" stroke="#fff" d="M0 474a2 2 0 012-2h3.72c.878 0 2.28 2.718 2.28 4.511v97.931C8 576.26 6.794 579 5.72 579H2a2 2 0 01-2-2V474z" clip-rule="evenodd"/>
  </mask>
  <g mask="url(#b)">
    <path fill="url(#paint3_linear_12_419)" fill-rule="evenodd" d="M0 472h2v107H0V472z" clip-rule="evenodd" opacity=".68" style="mix-blend-mode:overlay"/>
  </g>
  <g>
    <g filter="url(#filter2_iii_12_419)">
      <path fill="url(#paint4_linear_12_419)" fill-rule="evenodd" d="M0 337a2 2 0 012-2h3.72c.878 0 2.28 2.718 2.28 4.511v97.931C8 439.26 6.794 442 5.72 442H2a2 2 0 01-2-2V337z" clip-rule="evenodd"/>
    </g>
    <mask id="c" width="8" height="107" x="0" y="335" maskUnits="userSpaceOnUse" style="mask-type:alpha">
      <path fill="#fff" fill-rule="evenodd" d="M0 337a2 2 0 012-2h3.72c.878 0 2.28 2.718 2.28 4.511v97.931C8 439.26 6.794 442 5.72 442H2a2 2 0 01-2-2V337z" clip-rule="evenodd"/>
      <path fill-rule="evenodd" stroke="#fff" d="M0 337a2 2 0 012-2h3.72c.878 0 2.28 2.718 2.28 4.511v97.931C8 439.26 6.794 442 5.72 442H2a2 2 0 01-2-2V337z" clip-rule="evenodd"/>
    </mask>
    <g mask="url(#c)">
      <path fill="url(#paint5_linear_12_419)" fill-rule="evenodd" d="M0 335h2v107.001H0V335z" clip-rule="evenodd" opacity=".68" style="mix-blend-mode:overlay"/>
    </g>
  </g>
  <g>
    <g filter="url(#filter3_iii_12_419)">
      <path fill="url(#paint6_linear_12_419)" fill-rule="evenodd" d="M0 211a2 2 0 012-2h3.72c.878 0 2.28 2.744 2.28 4.554v44.845C8 260.234 6.794 263 5.72 263H2a2 2 0 01-2-2v-50z" clip-rule="evenodd"/>
    </g>
    <mask id="d" width="8" height="54" x="0" y="209" maskUnits="userSpaceOnUse" style="mask-type:alpha">
      <path fill="#fff" fill-rule="evenodd" d="M0 211a2 2 0 012-2h3.72c.878 0 2.28 2.744 2.28 4.554v44.845C8 260.234 6.794 263 5.72 263H2a2 2 0 01-2-2v-50z" clip-rule="evenodd"/>
      <path fill-rule="evenodd" stroke="#fff" d="M0 211a2 2 0 012-2h3.72c.878 0 2.28 2.744 2.28 4.554v44.845C8 260.234 6.794 263 5.72 263H2a2 2 0 01-2-2v-50z" clip-rule="evenodd"/>
    </mask>
    <g mask="url(#d)">
      <path fill="url(#paint7_linear_12_419)" fill-rule="evenodd" d="M0 209h2v54H0v-54z" clip-rule="evenodd" opacity=".68" style="mix-blend-mode:overlay"/>
    </g>
  </g>
  <g filter="url(#filter4_i_12_419)">
    <path fill="#37363B" d="M120.007 0C55.937 0 4 51.932 4 115.993v92.309c1.793 4.496 3 13.633 3 27.698 0 14.065-1.207 23.202-3 27.698v70.604c1.793 4.496 3 13.633 3 27.698v53c0 14.065-1.207 23.202-3 27.698v28.604c1.793 4.496 3 13.633 3 27.698v53c0 14.065-1.207 23.202-3 27.698V1616.01C4 1680.06 55.938 1732 120.007 1732h270.394c1.338-1.24 3.13-2 5.099-2h71c1.969 0 3.761.76 5.099 2h270.394C806.064 1732 858 1680.07 858 1616.01V444.657c-2.33-3.345-4-12.986-4-29.387v-52.54c0-16.401 1.67-26.042 4-29.387v-217.35C858 51.938 806.062 0 741.993 0H120.007z"/>
    <path fill="url(#paint8_linear_12_419)" d="M120.007 0C55.937 0 4 51.932 4 115.993v92.309c1.793 4.496 3 13.633 3 27.698 0 14.065-1.207 23.202-3 27.698v70.604c1.793 4.496 3 13.633 3 27.698v53c0 14.065-1.207 23.202-3 27.698v28.604c1.793 4.496 3 13.633 3 27.698v53c0 14.065-1.207 23.202-3 27.698V1616.01C4 1680.06 55.938 1732 120.007 1732h270.394c1.338-1.24 3.13-2 5.099-2h71c1.969 0 3.761.76 5.099 2h270.394C806.064 1732 858 1680.07 858 1616.01V444.657c-2.33-3.345-4-12.986-4-29.387v-52.54c0-16.401 1.67-26.042 4-29.387v-217.35C858 51.938 806.062 0 741.993 0H120.007z"/>
    <path fill="url(#pattern0)" fill-opacity=".05" d="M120.007 0C55.937 0 4 51.932 4 115.993v92.309c1.793 4.496 3 13.633 3 27.698 0 14.065-1.207 23.202-3 27.698v70.604c1.793 4.496 3 13.633 3 27.698v53c0 14.065-1.207 23.202-3 27.698v28.604c1.793 4.496 3 13.633 3 27.698v53c0 14.065-1.207 23.202-3 27.698V1616.01C4 1680.06 55.938 1732 120.007 1732h270.394c1.338-1.24 3.13-2 5.099-2h71c1.969 0 3.761.76 5.099 2h270.394C806.064 1732 858 1680.07 858 1616.01V444.657c-2.33-3.345-4-12.986-4-29.387v-52.54c0-16.401 1.67-26.042 4-29.387v-217.35C858 51.938 806.062 0 741.993 0H120.007z" style="mix-blend-mode:multiply"/>
  </g>
  <g>
    <mask id="e" width="828" height="1708" x="17" y="12" fill="#000" maskUnits="userSpaceOnUse">
      <path fill="#fff" d="M17 12h828v1708H17z"/>
      <path fill-rule="evenodd" d="M18 116.99C18 59.558 64.57 13 121.999 13h618.002C797.438 13 844 59.572 844 116.99v1498.02c0 57.43-46.57 103.99-103.999 103.99H121.999C64.562 1719 18 1672.43 18 1615.01V116.99z" clip-rule="evenodd"/>
    </mask>
    <path fill="url(#paint9_linear_12_419)" fill-rule="evenodd" d="M18 116.99C18 59.558 64.57 13 121.999 13h618.002C797.438 13 844 59.572 844 116.99v1498.02c0 57.43-46.57 103.99-103.999 103.99H121.999C64.562 1719 18 1672.43 18 1615.01V116.99z" clip-rule="evenodd"/>
    <path fill="#fff" fill-opacity=".1" d="M19 116.99C19 60.11 65.123 14 121.999 14v-2C64.019 12 17 59.006 17 116.99h2zM121.999 14h618.002v-2H121.999v2zm618.002 0C796.886 14 843 60.124 843 116.99h2C845 59.02 797.99 12 740.001 12v2zM843 116.99v1498.02h2V116.99h-2zm0 1498.02c0 56.88-46.123 102.99-102.999 102.99v2C797.982 1720 845 1672.99 845 1615.01h-2zM740.001 1718H121.999v2h618.002v-2zm-618.002 0C65.114 1718 19 1671.88 19 1615.01h-2C17 1672.98 64.01 1720 121.999 1720v-2zM19 1615.01V116.99h-2v1498.02h2z" mask="url(#e)"/>
  </g>
  <path fill="url(#paint10_linear_12_419)" fill-rule="evenodd" d="M19 125H4v24h15v-24zm0 1465H4v24h15v-24zM843 125h15v24h-15v-24zm15 1465h-15v24h15v-24z" clip-rule="evenodd" opacity=".5"/>
  <g>
    <path fill="#000" fill-rule="evenodd" d="M21 115.996C21 60.77 65.779 16 120.996 16h618.008C794.23 16 839 60.775 839 115.996V1615c0 55.23-44.779 100-99.996 100H120.996C65.77 1715 21 1670.23 21 1615V115.996z" clip-rule="evenodd"/>
    <g filter="url(#filter5_i_12_419)">
      <path fill="url(#paint11_angular_12_419)" fill-rule="evenodd" d="M490 1626c0 33.14-26.863 60-60 60s-60-26.86-60-60 26.863-60 60-60 60 26.86 60 60zm-7 0c0 29.27-23.729 53-53 53s-53-23.73-53-53 23.729-53 53-53 53 23.73 53 53z" clip-rule="evenodd"/>
    </g>
    <circle cx="430" cy="1626" r="53" fill="url(#paint12_linear_12_419)" fill-opacity=".7"/>
    <path fill="url(#paint13_linear_12_419)" fill-rule="evenodd" d="M351 104a6 6 0 016-6h146a6 6 0 016 6v2a6 6 0 01-6 6H357a6 6 0 01-6-6v-2z" clip-rule="evenodd"/>
    <path fill="url(#paint14_radial_12_419)" fill-rule="evenodd" d="M351 104a6 6 0 016-6h146a6 6 0 016 6v2a6 6 0 01-6 6H357a6 6 0 01-6-6v-2z" clip-rule="evenodd"/>
    <g filter="url(#filter6_i_12_419)">
      <path fill="#202020" fill-rule="evenodd" d="M353 105a5 5 0 015-5h144a5 5 0 010 10H358a5 5 0 01-5-5z" clip-rule="evenodd"/>
      <path fill="url(#pattern1)" fill-opacity=".02" fill-rule="evenodd" d="M353 105a5 5 0 015-5h144a5 5 0 010 10H358a5 5 0 01-5-5z" clip-rule="evenodd"/>
      <path fill="url(#paint15_linear_12_419)" fill-rule="evenodd" d="M353 105a5 5 0 015-5h144a5 5 0 010 10H358a5 5 0 01-5-5z" clip-rule="evenodd"/>
    </g>
    <path fill="url(#paint16_linear_12_419)" d="M283 117c7.18 0 13-5.82 13-13s-5.82-13-13-13-13 5.82-13 13 5.82 13 13 13z"/>
    <path fill="url(#paint17_linear_12_419)" d="M283 117c7.18 0 13-5.82 13-13s-5.82-13-13-13-13 5.82-13 13 5.82 13 13 13z"/>
    <path stroke="#181818" stroke-width="2" d="M283 117c7.18 0 13-5.82 13-13s-5.82-13-13-13-13 5.82-13 13 5.82 13 13 13z"/>
    <path stroke="url(#paint18_linear_12_419)" stroke-width="2" d="M283 117c7.18 0 13-5.82 13-13s-5.82-13-13-13-13 5.82-13 13 5.82 13 13 13z"/>
    <g filter="url(#filter7_dii_12_419)">
      <path fill="url(#paint19_linear_12_419)" fill-rule="evenodd" d="M283 111a7 7 0 100-14 7 7 0 000 14z" clip-rule="evenodd"/>
      <path fill="url(#paint20_radial_12_419)" fill-rule="evenodd" d="M283 111a7 7 0 100-14 7 7 0 000 14z" clip-rule="evenodd"/>
      <path fill="url(#paint21_radial_12_419)" fill-opacity=".6" fill-rule="evenodd" d="M283 111a7 7 0 100-14 7 7 0 000 14z" clip-rule="evenodd"/>
      <path fill="url(#paint22_radial_12_419)" fill-rule="evenodd" d="M283 111a7 7 0 100-14 7 7 0 000 14z" clip-rule="evenodd"/>
      <path fill="url(#paint23_radial_12_419)" fill-rule="evenodd" d="M283 111a7 7 0 100-14 7 7 0 000 14z" clip-rule="evenodd"/>
      <path fill="url(#paint24_linear_12_419)" fill-rule="evenodd" d="M283 111a7 7 0 100-14 7 7 0 000 14z" clip-rule="evenodd"/>
      <path stroke="#fff" stroke-opacity=".3" stroke-width=".5" d="M289.75 104a6.75 6.75 0 11-13.5 0 6.75 6.75 0 0113.5 0z" style="mix-blend-mode:overlay"/>
    </g>
    <g opacity=".5">
      <path fill="#fff" fill-opacity=".2" fill-rule="evenodd" d="M283 106a2 2 0 10.001-3.999A2 2 0 00283 106z" clip-rule="evenodd" style="mix-blend-mode:overlay"/>
    </g>
    <g>
      <g filter="url(#filter8_i_12_419)">
        <path fill="#110F0F" fill-rule="evenodd" d="M430 63c5.523 0 10-4.477 10-10s-4.477-10-10-10-10 4.477-10 10 4.477 10 10 10z" clip-rule="evenodd"/>
      </g>
      <path stroke="#000" stroke-width="2" d="M439 53a9 9 0 01-9 9 9 9 0 01-9-9 9 9 0 019-9 9 9 0 019 9z"/>
      <path stroke="#1A1717" stroke-width="2" d="M439 53a9 9 0 01-9 9 9 9 0 01-9-9 9 9 0 019-9 9 9 0 019 9z"/>
    </g>
    <g>
      <g filter="url(#filter9_i_12_419)">
        <path fill="#fff" fill-opacity=".2" fill-rule="evenodd" d="M34 116v1502c0 39.5 29.41 70.5 26.808 73.25-8.301 0-38.808-29.54-38.808-75.25V116.001C22 66.479 60.722 35 64.402 38.031 68.177 41.141 34 70.992 34 116z" clip-rule="evenodd"/>
        <path fill="url(#paint25_linear_12_419)" fill-opacity=".8" fill-rule="evenodd" d="M34 116v1502c0 39.5 29.41 70.5 26.808 73.25-8.301 0-38.808-29.54-38.808-75.25V116.001C22 66.479 60.722 35 64.402 38.031 68.177 41.141 34 70.992 34 116z" clip-rule="evenodd"/>
      </g>
      <g filter="url(#filter10_i_12_419)" opacity=".7">
        <path fill="#fff" fill-opacity=".2" fill-rule="evenodd" d="M825.693 116v1502c0 39.5-29.411 70.5-26.808 73.25 8.302 0 38.808-29.54 38.808-75.25V116.001c0-49.522-38.722-81.001-42.402-77.97-3.775 3.11 30.402 32.961 30.402 77.969z" clip-rule="evenodd"/>
        <path fill="url(#paint26_linear_12_419)" fill-opacity=".8" fill-rule="evenodd" d="M825.693 116v1502c0 39.5-29.411 70.5-26.808 73.25 8.302 0 38.808-29.54 38.808-75.25V116.001c0-49.522-38.722-81.001-42.402-77.97-3.775 3.11 30.402 32.961 30.402 77.969z" clip-rule="evenodd"/>
      </g>
    </g>
    <path fill="#000" fill-opacity=".6" d="M238 20h329v140H238z"/>
  </g>
  <path fill="#0D0A00" fill-rule="evenodd" d="M51 199c0-2.209 1.79-4 3.999-4H805a4 4 0 013.999 4v1334c0 2.21-1.789 4-3.999 4H54.999a3.999 3.999 0 01-3.999-4V199z" clip-rule="evenodd"/>
  <g>
    <path fill="#252525" fill-rule="evenodd" d="M55 199h750v1334H55V199z" clip-rule="evenodd"/>
    <path fill="url(#pattern2)" fill-rule="evenodd" d="M55 199h750v1334H55V199z" clip-rule="evenodd"/>
  </g>
  <path fill="url(#paint27_linear_12_419)" fill-rule="evenodd" d="M21 115.996C21 60.77 65.779 16 120.996 16h618.008C794.23 16 839 60.775 839 115.996V1615c0 55.23-44.779 100-99.996 100H120.996C65.77 1715 21 1670.23 21 1615V115.996z" clip-rule="evenodd" opacity=".5"/>
  <defs>
    <linearGradient id="paint0_linear_12_419" x1="857" x2="854" y1="385" y2="385" gradientUnits="userSpaceOnUse">
      <stop stop-color="#484851"/>
      <stop offset="1" stop-color="#282830"/>
    </linearGradient>
    <linearGradient id="paint1_linear_12_419" x1="859" x2="859" y1="334" y2="444.001" gradientUnits="userSpaceOnUse">
      <stop stop-color="#D9D9D9" stop-opacity=".1"/>
      <stop offset=".068" stop-color="#302D3F" stop-opacity=".8"/>
      <stop offset=".131" stop-color="#FEFEFE" stop-opacity=".8"/>
      <stop offset=".901" stop-color="#FFFEFD" stop-opacity=".8"/>
      <stop offset=".948" stop-color="#363148" stop-opacity=".8"/>
      <stop offset="1" stop-color="#EBEBEB" stop-opacity=".1"/>
    </linearGradient>
    <linearGradient id="paint2_linear_12_419" x1="4" x2="7" y1="521.609" y2="521.609" gradientUnits="userSpaceOnUse">
      <stop stop-color="#484851"/>
      <stop offset="1" stop-color="#282830"/>
    </linearGradient>
    <linearGradient id="paint3_linear_12_419" x1="0" x2="0" y1="472" y2="579" gradientUnits="userSpaceOnUse">
      <stop stop-color="#D9D9D9" stop-opacity=".1"/>
      <stop offset=".068" stop-color="#302D3F" stop-opacity=".8"/>
      <stop offset=".131" stop-color="#FEFEFE" stop-opacity=".8"/>
      <stop offset=".901" stop-color="#FFFEFD" stop-opacity=".8"/>
      <stop offset=".948" stop-color="#363148" stop-opacity=".8"/>
      <stop offset="1" stop-color="#EBEBEB" stop-opacity=".1"/>
    </linearGradient>
    <linearGradient id="paint4_linear_12_419" x1="4" x2="7" y1="384.609" y2="384.609" gradientUnits="userSpaceOnUse">
      <stop stop-color="#484851"/>
      <stop offset="1" stop-color="#282830"/>
    </linearGradient>
    <linearGradient id="paint5_linear_12_419" x1="0" x2="0" y1="335" y2="442.001" gradientUnits="userSpaceOnUse">
      <stop stop-color="#D9D9D9" stop-opacity=".1"/>
      <stop offset=".068" stop-color="#302D3F" stop-opacity=".8"/>
      <stop offset=".131" stop-color="#FEFEFE" stop-opacity=".8"/>
      <stop offset=".901" stop-color="#FFFEFD" stop-opacity=".8"/>
      <stop offset=".948" stop-color="#363148" stop-opacity=".8"/>
      <stop offset="1" stop-color="#EBEBEB" stop-opacity=".1"/>
    </linearGradient>
    <linearGradient id="paint6_linear_12_419" x1="4" x2="7" y1="234.036" y2="234.036" gradientUnits="userSpaceOnUse">
      <stop stop-color="#484851"/>
      <stop offset="1" stop-color="#282830"/>
    </linearGradient>
    <linearGradient id="paint7_linear_12_419" x1="0" x2="0" y1="209" y2="263" gradientUnits="userSpaceOnUse">
      <stop stop-color="#D9D9D9" stop-opacity=".1"/>
      <stop offset=".068" stop-color="#302D3F" stop-opacity=".8"/>
      <stop offset=".131" stop-color="#FEFEFE" stop-opacity=".8"/>
      <stop offset=".901" stop-color="#FFFEFD" stop-opacity=".8"/>
      <stop offset=".948" stop-color="#363148" stop-opacity=".8"/>
      <stop offset="1" stop-color="#EBEBEB" stop-opacity=".1"/>
    </linearGradient>
    <linearGradient id="paint8_linear_12_419" x1="576" x2="4" y1="741.5" y2="0" gradientUnits="userSpaceOnUse">
      <stop stop-opacity=".3"/>
      <stop offset="1" stop-opacity=".01"/>
    </linearGradient>
    <linearGradient id="paint9_linear_12_419" x1="18" x2="18" y1="13" y2="1719" gradientUnits="userSpaceOnUse">
      <stop stop-color="#212121"/>
      <stop offset="1" stop-color="#1A1A1B"/>
    </linearGradient>
    <linearGradient id="paint10_linear_12_419" x1="4" x2="4" y1="125" y2="1614" gradientUnits="userSpaceOnUse">
      <stop stop-color="#1A1A1C"/>
      <stop offset="1" stop-color="#1C1C1D"/>
    </linearGradient>
    <linearGradient id="paint12_linear_12_419" x1="430" x2="430" y1="1573" y2="1679" gradientUnits="userSpaceOnUse">
      <stop stop-color="#C4C4C4" stop-opacity=".05"/>
      <stop offset="1" stop-color="#fff" stop-opacity=".1"/>
    </linearGradient>
    <linearGradient id="paint13_linear_12_419" x1="509" x2="509" y1="112" y2="98" gradientUnits="userSpaceOnUse">
      <stop stop-color="#222"/>
      <stop offset="1" stop-color="#111"/>
    </linearGradient>
    <linearGradient id="paint15_linear_12_419" x1="353" x2="507" y1="105" y2="105" gradientUnits="userSpaceOnUse">
      <stop stop-opacity=".5"/>
      <stop offset="1" stop-opacity="0"/>
    </linearGradient>
    <linearGradient id="paint16_linear_12_419" x1="307" x2="283" y1="104" y2="80" gradientUnits="userSpaceOnUse">
      <stop stop-color="#2E3235"/>
      <stop offset=".393" stop-color="#232426"/>
      <stop offset="1" stop-color="#1A1A1A"/>
    </linearGradient>
    <linearGradient id="paint17_linear_12_419" x1="263.643" x2="286.991" y1="106.579" y2="127.674" gradientUnits="userSpaceOnUse">
      <stop stop-opacity=".2"/>
      <stop offset=".276" stop-opacity=".01"/>
      <stop offset="1" stop-color="#B4B4B4" stop-opacity=".5"/>
    </linearGradient>
    <linearGradient id="paint18_linear_12_419" x1="266.267" x2="275.57" y1="96.651" y2="106.117" gradientUnits="userSpaceOnUse">
      <stop/>
      <stop offset="1" stop-opacity=".01"/>
    </linearGradient>
    <linearGradient id="paint19_linear_12_419" x1="276" x2="276" y1="97" y2="111" gradientUnits="userSpaceOnUse">
      <stop stop-color="#062F90"/>
      <stop offset="1" stop-color="#012576"/>
    </linearGradient>
    <linearGradient id="paint24_linear_12_419" x1="276" x2="276" y1="97" y2="111" gradientUnits="userSpaceOnUse">
      <stop stop-color="#5200FF" stop-opacity=".01"/>
      <stop offset="1" stop-color="#B800FF" stop-opacity=".3"/>
    </linearGradient>
    <linearGradient id="paint25_linear_12_419" x1="22" x2="64.693" y1="1691.25" y2="1691.25" gradientUnits="userSpaceOnUse">
      <stop stop-color="#fff" stop-opacity=".5"/>
      <stop offset="1" stop-color="#fff" stop-opacity=".01"/>
    </linearGradient>
    <linearGradient id="paint26_linear_12_419" x1="837.693" x2="795" y1="1691.25" y2="1691.25" gradientUnits="userSpaceOnUse">
      <stop stop-color="#fff" stop-opacity=".5"/>
      <stop offset="1" stop-color="#fff" stop-opacity=".01"/>
    </linearGradient>
    <linearGradient id="paint27_linear_12_419" x1="11.406" x2="836.129" y1="16" y2="1716.39" gradientUnits="userSpaceOnUse">
      <stop stop-color="#fff" stop-opacity=".26"/>
      <stop offset=".471" stop-color="#fff" stop-opacity=".078"/>
      <stop offset="1" stop-color="#fff" stop-opacity="0"/>
    </linearGradient>
    <filter id="filter0_iii_12_419" width="8.5" height="118" x="852.5" y="330" color-interpolation-filters="sRGB" filterUnits="userSpaceOnUse">
      <feFlood flood-opacity="0" result="BackgroundImageFix"/>
      <feBlend in="SourceGraphic" in2="BackgroundImageFix" result="shape"/>
      <feColorMatrix in="SourceAlpha" result="hardAlpha" values="0 0 0 0 0 0 0 0 0 0 0 0 0 0 0 0 0 0 127 0"/>
      <feOffset dx="-1"/>
      <feGaussianBlur stdDeviation=".25"/>
      <feComposite in2="hardAlpha" k2="-1" k3="1" operator="arithmetic"/>
      <feColorMatrix values="0 0 0 0 0 0 0 0 0 0 0 0 0 0 0 0 0 0 0.4 0"/>
      <feBlend in2="shape" result="effect1_innerShadow_12_419"/>
      <feColorMatrix in="SourceAlpha" result="hardAlpha" values="0 0 0 0 0 0 0 0 0 0 0 0 0 0 0 0 0 0 127 0"/>
      <feOffset dy="8"/>
      <feGaussianBlur stdDeviation="2"/>
      <feComposite in2="hardAlpha" k2="-1" k3="1" operator="arithmetic"/>
      <feColorMatrix values="0 0 0 0 0 0 0 0 0 0 0 0 0 0 0 0 0 0 0.48 0"/>
      <feBlend in2="effect1_innerShadow_12_419" result="effect2_innerShadow_12_419"/>
      <feColorMatrix in="SourceAlpha" result="hardAlpha" values="0 0 0 0 0 0 0 0 0 0 0 0 0 0 0 0 0 0 127 0"/>
      <feOffset dy="-8"/>
      <feGaussianBlur stdDeviation="2"/>
      <feComposite in2="hardAlpha" k2="-1" k3="1" operator="arithmetic"/>
      <feColorMatrix values="0 0 0 0 0 0 0 0 0 0 0 0 0 0 0 0 0 0 0.25 0"/>
      <feBlend in2="effect2_innerShadow_12_419" result="effect3_innerShadow_12_419"/>
    </filter>
    <filter id="filter1_iii_12_419" width="8.5" height="115" x="0" y="468" color-interpolation-filters="sRGB" filterUnits="userSpaceOnUse">
      <feFlood flood-opacity="0" result="BackgroundImageFix"/>
      <feBlend in="SourceGraphic" in2="BackgroundImageFix" result="shape"/>
      <feColorMatrix in="SourceAlpha" result="hardAlpha" values="0 0 0 0 0 0 0 0 0 0 0 0 0 0 0 0 0 0 127 0"/>
      <feOffset dx="1"/>
      <feGaussianBlur stdDeviation=".25"/>
      <feComposite in2="hardAlpha" k2="-1" k3="1" operator="arithmetic"/>
      <feColorMatrix values="0 0 0 0 0 0 0 0 0 0 0 0 0 0 0 0 0 0 0.4 0"/>
      <feBlend in2="shape" result="effect1_innerShadow_12_419"/>
      <feColorMatrix in="SourceAlpha" result="hardAlpha" values="0 0 0 0 0 0 0 0 0 0 0 0 0 0 0 0 0 0 127 0"/>
      <feOffset dy="8"/>
      <feGaussianBlur stdDeviation="2"/>
      <feComposite in2="hardAlpha" k2="-1" k3="1" operator="arithmetic"/>
      <feColorMatrix values="0 0 0 0 0 0 0 0 0 0 0 0 0 0 0 0 0 0 0.48 0"/>
      <feBlend in2="effect1_innerShadow_12_419" result="effect2_innerShadow_12_419"/>
      <feColorMatrix in="SourceAlpha" result="hardAlpha" values="0 0 0 0 0 0 0 0 0 0 0 0 0 0 0 0 0 0 127 0"/>
      <feOffset dy="-8"/>
      <feGaussianBlur stdDeviation="2"/>
      <feComposite in2="hardAlpha" k2="-1" k3="1" operator="arithmetic"/>
      <feColorMatrix values="0 0 0 0 0 0 0 0 0 0 0 0 0 0 0 0 0 0 0.25 0"/>
      <feBlend in2="effect2_innerShadow_12_419" result="effect3_innerShadow_12_419"/>
    </filter>
    <filter id="filter2_iii_12_419" width="8.5" height="115" x="0" y="331" color-interpolation-filters="sRGB" filterUnits="userSpaceOnUse">
      <feFlood flood-opacity="0" result="BackgroundImageFix"/>
      <feBlend in="SourceGraphic" in2="BackgroundImageFix" result="shape"/>
      <feColorMatrix in="SourceAlpha" result="hardAlpha" values="0 0 0 0 0 0 0 0 0 0 0 0 0 0 0 0 0 0 127 0"/>
      <feOffset dx="1"/>
      <feGaussianBlur stdDeviation=".25"/>
      <feComposite in2="hardAlpha" k2="-1" k3="1" operator="arithmetic"/>
      <feColorMatrix values="0 0 0 0 0 0 0 0 0 0 0 0 0 0 0 0 0 0 0.4 0"/>
      <feBlend in2="shape" result="effect1_innerShadow_12_419"/>
      <feColorMatrix in="SourceAlpha" result="hardAlpha" values="0 0 0 0 0 0 0 0 0 0 0 0 0 0 0 0 0 0 127 0"/>
      <feOffset dy="8"/>
      <feGaussianBlur stdDeviation="2"/>
      <feComposite in2="hardAlpha" k2="-1" k3="1" operator="arithmetic"/>
      <feColorMatrix values="0 0 0 0 0 0 0 0 0 0 0 0 0 0 0 0 0 0 0.48 0"/>
      <feBlend in2="effect1_innerShadow_12_419" result="effect2_innerShadow_12_419"/>
      <feColorMatrix in="SourceAlpha" result="hardAlpha" values="0 0 0 0 0 0 0 0 0 0 0 0 0 0 0 0 0 0 127 0"/>
      <feOffset dy="-8"/>
      <feGaussianBlur stdDeviation="2"/>
      <feComposite in2="hardAlpha" k2="-1" k3="1" operator="arithmetic"/>
      <feColorMatrix values="0 0 0 0 0 0 0 0 0 0 0 0 0 0 0 0 0 0 0.25 0"/>
      <feBlend in2="effect2_innerShadow_12_419" result="effect3_innerShadow_12_419"/>
    </filter>
    <filter id="filter3_iii_12_419" width="8.5" height="62" x="0" y="205" color-interpolation-filters="sRGB" filterUnits="userSpaceOnUse">
      <feFlood flood-opacity="0" result="BackgroundImageFix"/>
      <feBlend in="SourceGraphic" in2="BackgroundImageFix" result="shape"/>
      <feColorMatrix in="SourceAlpha" result="hardAlpha" values="0 0 0 0 0 0 0 0 0 0 0 0 0 0 0 0 0 0 127 0"/>
      <feOffset dx="1"/>
      <feGaussianBlur stdDeviation=".25"/>
      <feComposite in2="hardAlpha" k2="-1" k3="1" operator="arithmetic"/>
      <feColorMatrix values="0 0 0 0 0 0 0 0 0 0 0 0 0 0 0 0 0 0 0.4 0"/>
      <feBlend in2="shape" result="effect1_innerShadow_12_419"/>
      <feColorMatrix in="SourceAlpha" result="hardAlpha" values="0 0 0 0 0 0 0 0 0 0 0 0 0 0 0 0 0 0 127 0"/>
      <feOffset dy="8"/>
      <feGaussianBlur stdDeviation="2"/>
      <feComposite in2="hardAlpha" k2="-1" k3="1" operator="arithmetic"/>
      <feColorMatrix values="0 0 0 0 0 0 0 0 0 0 0 0 0 0 0 0 0 0 0.48 0"/>
      <feBlend in2="effect1_innerShadow_12_419" result="effect2_innerShadow_12_419"/>
      <feColorMatrix in="SourceAlpha" result="hardAlpha" values="0 0 0 0 0 0 0 0 0 0 0 0 0 0 0 0 0 0 127 0"/>
      <feOffset dy="-8"/>
      <feGaussianBlur stdDeviation="2"/>
      <feComposite in2="hardAlpha" k2="-1" k3="1" operator="arithmetic"/>
      <feColorMatrix values="0 0 0 0 0 0 0 0 0 0 0 0 0 0 0 0 0 0 0.25 0"/>
      <feBlend in2="effect2_innerShadow_12_419" result="effect3_innerShadow_12_419"/>
    </filter>
    <filter id="filter4_i_12_419" width="854" height="1736" x="4" y="0" color-interpolation-filters="sRGB" filterUnits="userSpaceOnUse">
      <feFlood flood-opacity="0" result="BackgroundImageFix"/>
      <feBlend in="SourceGraphic" in2="BackgroundImageFix" result="shape"/>
      <feColorMatrix in="SourceAlpha" result="hardAlpha" values="0 0 0 0 0 0 0 0 0 0 0 0 0 0 0 0 0 0 127 0"/>
      <feOffset dy="4"/>
      <feGaussianBlur stdDeviation="5"/>
      <feComposite in2="hardAlpha" k2="-1" k3="1" operator="arithmetic"/>
      <feColorMatrix values="0 0 0 0 0 0 0 0 0 0 0 0 0 0 0 0 0 0 0.4 0"/>
      <feBlend in2="shape" result="effect1_innerShadow_12_419"/>
    </filter>
    <filter id="filter5_i_12_419" width="120" height="120" x="370" y="1566" color-interpolation-filters="sRGB" filterUnits="userSpaceOnUse">
      <feFlood flood-opacity="0" result="BackgroundImageFix"/>
      <feBlend in="SourceGraphic" in2="BackgroundImageFix" result="shape"/>
      <feColorMatrix in="SourceAlpha" result="hardAlpha" values="0 0 0 0 0 0 0 0 0 0 0 0 0 0 0 0 0 0 127 0"/>
      <feOffset dy="-1"/>
      <feComposite in2="hardAlpha" k2="-1" k3="1" operator="arithmetic"/>
      <feColorMatrix values="0 0 0 0 1 0 0 0 0 1 0 0 0 0 1 0 0 0 0.05 0"/>
      <feBlend in2="shape" result="effect1_innerShadow_12_419"/>
    </filter>
    <filter id="filter6_i_12_419" width="154" height="14" x="353" y="100" color-interpolation-filters="sRGB" filterUnits="userSpaceOnUse">
      <feFlood flood-opacity="0" result="BackgroundImageFix"/>
      <feBlend in="SourceGraphic" in2="BackgroundImageFix" result="shape"/>
      <feColorMatrix in="SourceAlpha" result="hardAlpha" values="0 0 0 0 0 0 0 0 0 0 0 0 0 0 0 0 0 0 127 0"/>
      <feOffset dy="4"/>
      <feGaussianBlur stdDeviation="2"/>
      <feComposite in2="hardAlpha" k2="-1" k3="1" operator="arithmetic"/>
      <feColorMatrix values="0 0 0 0 0 0 0 0 0 0 0 0 0 0 0 0 0 0 0.25 0"/>
      <feBlend in2="shape" result="effect1_innerShadow_12_419"/>
    </filter>
    <filter id="filter7_dii_12_419" width="18" height="18" x="274" y="96" color-interpolation-filters="sRGB" filterUnits="userSpaceOnUse">
      <feFlood flood-opacity="0" result="BackgroundImageFix"/>
      <feColorMatrix in="SourceAlpha" result="hardAlpha" values="0 0 0 0 0 0 0 0 0 0 0 0 0 0 0 0 0 0 127 0"/>
      <feOffset dy="1"/>
      <feGaussianBlur stdDeviation="1"/>
      <feColorMatrix values="0 0 0 0 0.381537 0 0 0 0 0.381537 0 0 0 0 0.381537 0 0 0 0.5 0"/>
      <feBlend in2="BackgroundImageFix" result="effect1_dropShadow_12_419"/>
      <feBlend in="SourceGraphic" in2="effect1_dropShadow_12_419" result="shape"/>
      <feColorMatrix in="SourceAlpha" result="hardAlpha" values="0 0 0 0 0 0 0 0 0 0 0 0 0 0 0 0 0 0 127 0"/>
      <feOffset dy="1"/>
      <feGaussianBlur stdDeviation="2.5"/>
      <feComposite in2="hardAlpha" k2="-1" k3="1" operator="arithmetic"/>
      <feColorMatrix values="0 0 0 0 1 0 0 0 0 1 0 0 0 0 1 0 0 0 0.5 0"/>
      <feBlend in2="shape" result="effect2_innerShadow_12_419"/>
      <feColorMatrix in="SourceAlpha" result="hardAlpha" values="0 0 0 0 0 0 0 0 0 0 0 0 0 0 0 0 0 0 127 0"/>
      <feOffset/>
      <feGaussianBlur stdDeviation="1.5"/>
      <feComposite in2="hardAlpha" k2="-1" k3="1" operator="arithmetic"/>
      <feColorMatrix values="0 0 0 0 0 0 0 0 0 0 0 0 0 0 0 0 0 0 0.6 0"/>
      <feBlend in2="effect2_innerShadow_12_419" result="effect3_innerShadow_12_419"/>
    </filter>
    <filter id="filter8_i_12_419" width="20" height="22" x="420" y="43" color-interpolation-filters="sRGB" filterUnits="userSpaceOnUse">
      <feFlood flood-opacity="0" result="BackgroundImageFix"/>
      <feBlend in="SourceGraphic" in2="BackgroundImageFix" result="shape"/>
      <feColorMatrix in="SourceAlpha" result="hardAlpha" values="0 0 0 0 0 0 0 0 0 0 0 0 0 0 0 0 0 0 127 0"/>
      <feOffset dy="2"/>
      <feGaussianBlur stdDeviation="1.5"/>
      <feComposite in2="hardAlpha" k2="-1" k3="1" operator="arithmetic"/>
      <feColorMatrix values="0 0 0 0 0 0 0 0 0 0 0 0 0 0 0 0 0 0 0.5 0"/>
      <feBlend in2="shape" result="effect1_innerShadow_12_419"/>
    </filter>
    <filter id="filter9_i_12_419" width="43.693" height="1653.42" x="22" y="37.83" color-interpolation-filters="sRGB" filterUnits="userSpaceOnUse">
      <feFlood flood-opacity="0" result="BackgroundImageFix"/>
      <feBlend in="SourceGraphic" in2="BackgroundImageFix" result="shape"/>
      <feColorMatrix in="SourceAlpha" result="hardAlpha" values="0 0 0 0 0 0 0 0 0 0 0 0 0 0 0 0 0 0 127 0"/>
      <feOffset dx="1"/>
      <feGaussianBlur stdDeviation="1.5"/>
      <feComposite in2="hardAlpha" k2="-1" k3="1" operator="arithmetic"/>
      <feColorMatrix values="0 0 0 0 1 0 0 0 0 1 0 0 0 0 1 0 0 0 0.2 0"/>
      <feBlend in2="shape" result="effect1_innerShadow_12_419"/>
    </filter>
    <filter id="filter10_i_12_419" width="43.693" height="1653.42" x="795" y="37.83" color-interpolation-filters="sRGB" filterUnits="userSpaceOnUse">
      <feFlood flood-opacity="0" result="BackgroundImageFix"/>
      <feBlend in="SourceGraphic" in2="BackgroundImageFix" result="shape"/>
      <feColorMatrix in="SourceAlpha" result="hardAlpha" values="0 0 0 0 0 0 0 0 0 0 0 0 0 0 0 0 0 0 127 0"/>
      <feOffset dx="1"/>
      <feGaussianBlur stdDeviation="1.5"/>
      <feComposite in2="hardAlpha" k2="-1" k3="1" operator="arithmetic"/>
      <feColorMatrix values="0 0 0 0 1 0 0 0 0 1 0 0 0 0 1 0 0 0 0.2 0"/>
      <feBlend in2="shape" result="effect1_innerShadow_12_419"/>
    </filter>
    <radialGradient id="paint11_angular_12_419" cx="0" cy="0" r="1" gradientTransform="matrix(60 0 0 60 430 1626)" gradientUnits="userSpaceOnUse">
      <stop offset=".039" stop-color="#3C4043"/>
      <stop offset=".095" stop-color="#787A7E"/>
      <stop offset=".158" stop-color="#6B6D74"/>
      <stop offset=".319" stop-color="#121115"/>
      <stop offset=".5" stop-color="#1A1B20"/>
      <stop offset=".625" stop-color="#1C1D22"/>
      <stop offset=".778" stop-color="#3B3D41"/>
      <stop offset=".85" stop-color="#6D7072"/>
      <stop offset=".912" stop-color="#3A3E41"/>
      <stop offset=".966" stop-color="#0E0F13"/>
    </radialGradient>
    <radialGradient id="paint14_radial_12_419" cx="0" cy="0" r="1" gradientTransform="matrix(0 14 -158 0 510.179 116.389)" gradientUnits="userSpaceOnUse">
      <stop stop-color="#fff" stop-opacity=".4"/>
      <stop offset="1" stop-color="#fff" stop-opacity=".01"/>
    </radialGradient>
    <radialGradient id="paint20_radial_12_419" cx="0" cy="0" r="1" gradientTransform="matrix(-2.5844 4.57556 -14.48161 -8.17963 283.685 104)" gradientUnits="userSpaceOnUse">
      <stop stop-color="#031749"/>
      <stop offset=".857" stop-color="#010D1E" stop-opacity=".139"/>
      <stop offset="1" stop-color="#010B17" stop-opacity=".01"/>
    </radialGradient>
    <radialGradient id="paint21_radial_12_419" cx="0" cy="0" r="1" gradientTransform="rotate(125.913 116.823 122.723) scale(2.96869 5.08777)" gradientUnits="userSpaceOnUse">
      <stop stop-color="#2C84FD"/>
      <stop offset="1" stop-color="#4C85AD" stop-opacity=".01"/>
    </radialGradient>
    <radialGradient id="paint22_radial_12_419" cx="0" cy="0" r="1" gradientTransform="rotate(90 87.661 190.319) scale(2.96283)" gradientUnits="userSpaceOnUse">
      <stop stop-color="#fff" stop-opacity=".5"/>
      <stop offset="1" stop-color="#fff" stop-opacity=".01"/>
    </radialGradient>
    <radialGradient id="paint23_radial_12_419" cx="0" cy="0" r="1" gradientTransform="matrix(3.23131 1.32258 -1.66827 4.07591 290 106.367)" gradientUnits="userSpaceOnUse">
      <stop stop-color="#1C86FF"/>
      <stop offset=".39" stop-color="#0A9DFF" stop-opacity=".372"/>
      <stop offset="1" stop-color="#00ABFF" stop-opacity=".01"/>
    </radialGradient>
    <pattern id="pattern0" width=".059" height=".029" patternContentUnits="objectBoundingBox">
      <use transform="scale(.00059 .00029)" xlink:href="#image0_12_419"/>
    </pattern>
    <pattern id="pattern1" width=".032" height=".5" patternContentUnits="objectBoundingBox">
      <use transform="scale(.0005 .00781)" xlink:href="#image1_12_419"/>
    </pattern>
    <pattern id="pattern2" width="1" height="1" patternContentUnits="objectBoundingBox">
      <use transform="matrix(.00133 0 0 .00075 0 -.109)" xlink:href="#image2_12_419"/>
    </pattern>
  </defs>
</svg>
